<svg width="32" height="32" viewBox="0 0 32 32" fill="none" xmlns="http://www.w3.org/2000/svg">
  <rect width="32" height="32" rx="8" fill="#4A6CF7"/>
  <path d="M22.5 10.5C22.5 11.3284 21.8284 12 21 12C20.1716 12 19.5 11.3284 19.5 10.5C19.5 9.67157 20.1716 9 21 9C21.8284 9 22.5 9.67157 22.5 10.5Z" fill="white"/>
  <path d="M16 7C10.4772 7 6 11.4772 6 17C6 19.4175 6.79 21.6457 8.1275 23.3925L7 26L9.85 25.1C11.475 26.2525 13.6225 27 16 27C21.5228 27 26 22.5228 26 17C26 11.4772 21.5228 7 16 7ZM16 25C13.93 25 12.0375 24.3175 10.5325 23.1675L8.05 23.9L8.82 21.61C7.535 20.0725 6.75 18.1125 6.75 16C6.75 11.3075 10.9625 7.5 16 7.5C21.0375 7.5 25.25 11.3075 25.25 16C25.25 20.6925 21.0375 25 16 25Z" fill="white"/>
  <path d="M20.25 17.875C20.25 18.125 20 18.375 19.75 18.625C19.5 18.875 19.25 19 19 19C18.125 19 17.0625 18.5625 16.125 17.625C15.1875 16.6875 14.75 15.625 14.75 14.75C14.75 14.5 14.875 14.25 15.125 14C15.375 13.75 15.625 13.5 15.875 13.5C16 13.5 16.125 13.5 16.25 13.5C16.375 13.5 16.5 13.5 16.5625 13.5625C16.6875 13.625 16.8125 13.8125 16.9375 14.125C17.0625 14.4375 17.1875 14.75 17.3125 15.0625C17.375 15.1875 17.4375 15.3125 17.4375 15.4375C17.4375 15.5625 17.375 15.6875 17.3125 15.8125C17.25 15.9375 17.1875 16.0625 17.125 16.125C17.0625 16.25 17 16.3125 16.9375 16.4375C16.875 16.5625 16.8125 16.6875 16.875 16.8125C16.9375 17 17.0625 17.1875 17.1875 17.375C17.375 17.5625 17.5625 17.75 17.75 17.875C17.9375 18 18.125 18.125 18.25 18.1875C18.375 18.25 18.5 18.25 18.5625 18.1875C18.625 18.125 18.6875 18.0625 18.75 17.9375C18.8125 17.8125 18.875 17.75 18.9375 17.6875C19 17.625 19.125 17.5625 19.25 17.5C19.375 17.4375 19.5 17.5 19.625 17.5625C19.9375 17.6875 20.25 17.8125 20.5625 17.9375C20.875 18.0625 21.0625 18.1875 21.125 18.3125C21.1875 18.5 21.1875 18.625 21.125 18.75C21 18.75 20.75 18.75 20.75 18.75C20.625 18.5 20.375 18.125 20.25 17.875Z" fill="white"/>
</svg> 