<svg xmlns="http://www.w3.org/2000/svg" viewBox="0 0 64 64" width="64" height="64">
  <defs>
    <linearGradient id="grad" x1="0%" y1="0%" x2="100%" y2="100%">
      <stop offset="0%" stop-color="#4a6cf7" />
      <stop offset="100%" stop-color="#3a56d4" />
    </linearGradient>
    <linearGradient id="whatsapp-gradient" x1="0%" y1="0%" x2="100%" y2="100%">
      <stop offset="0%" stop-color="#25D366" />
      <stop offset="100%" stop-color="#128C7E" />
    </linearGradient>
  </defs>
  
  <!-- Background Circle -->
  <circle cx="32" cy="32" r="30" fill="white" />
  
  <!-- Letter S -->
  <path d="M24,20 C24,17 26,15 29,15 L35,15 C38,15 40,17 40,20 C40,23 38,25 35,25 L29,25 C26,25 24,27 24,30 C24,33 26,35 29,35 L35,35 C38,35 40,37 40,40 C40,43 38,45 35,45 L29,45 C26,45 24,43 24,40" 
        stroke="url(#grad)" stroke-width="5" fill="none" stroke-linecap="round" />
  
  <!-- WhatsApp Icon -->
  <g transform="translate(42, 42) scale(0.6)">
    <circle cx="0" cy="0" r="15" fill="url(#whatsapp-gradient)" />
    <path d="M0,0 m-9,-3 a9,9 0 1,1 18,0 a9,9 0 1,1 -18,0" fill="white" />
    <path d="M-4.5,-3 L0,1.5 L7.5,-6" stroke="white" stroke-width="2" fill="none" />
  </g>
  
  <!-- Border -->
  <circle cx="32" cy="32" r="30" fill="none" stroke="url(#grad)" stroke-width="2" />
</svg> 