<svg xmlns="http://www.w3.org/2000/svg" viewBox="0 0 100 100" width="100" height="100">
  <defs>
    <linearGradient id="grad" x1="0%" y1="0%" x2="100%" y2="100%">
      <stop offset="0%" stop-color="#4a6cf7" />
      <stop offset="100%" stop-color="#3a56d4" />
    </linearGradient>
  </defs>
  <circle cx="50" cy="50" r="45" fill="#f5f7fa" />
  
  <g transform="translate(15, 15)">
    <!-- Analytics Graph -->
    <rect x="10" y="10" width="60" height="40" rx="2" ry="2" fill="white" stroke="url(#grad)" stroke-width="2" />
    
    <!-- X and Y Axis -->
    <line x1="10" y1="50" x2="70" y2="50" stroke="#333" stroke-width="1" />
    <line x1="10" y1="50" x2="10" y2="10" stroke="#333" stroke-width="1" />
    
    <!-- Chart Lines -->
    <polyline points="15,40 25,30 35,35 45,20 55,25 65,15" 
             fill="none" stroke="url(#grad)" stroke-width="2" />
    
    <!-- Data Points -->
    <circle cx="15" cy="40" r="2" fill="url(#grad)" />
    <circle cx="25" cy="30" r="2" fill="url(#grad)" />
    <circle cx="35" cy="35" r="2" fill="url(#grad)" />
    <circle cx="45" cy="20" r="2" fill="url(#grad)" />
    <circle cx="55" cy="25" r="2" fill="url(#grad)" />
    <circle cx="65" cy="15" r="2" fill="url(#grad)" />
    
    <!-- Graph Area -->
    <path d="M15,40 L25,30 L35,35 L45,20 L55,25 L65,15 L65,50 L15,50 Z" 
          fill="url(#grad)" opacity="0.1" />
    
    <!-- Chat Bubbles -->
    <g transform="translate(0, 60)">
      <!-- Left Chat Bubble -->
      <rect x="0" y="0" width="25" height="15" rx="5" ry="5" fill="white" stroke="url(#grad)" stroke-width="1" />
      <polygon points="5,15 10,22 15,15" fill="white" stroke="url(#grad)" stroke-width="1" />
      
      <!-- Right Chat Bubble -->
      <rect x="45" y="0" width="25" height="15" rx="5" ry="5" fill="url(#grad)" opacity="0.8" />
      <polygon points="65,15 60,22 55,15" fill="url(#grad)" opacity="0.8" />
    </g>
  </g>
  
  <circle cx="50" cy="50" r="45" fill="none" stroke="url(#grad)" stroke-width="2" />
</svg> 