<svg xmlns="http://www.w3.org/2000/svg" viewBox="0 0 100 100" width="100" height="100">
  <defs>
    <linearGradient id="grad" x1="0%" y1="0%" x2="100%" y2="100%">
      <stop offset="0%" stop-color="#4a6cf7" />
      <stop offset="100%" stop-color="#3a56d4" />
    </linearGradient>
  </defs>
  <circle cx="50" cy="50" r="45" fill="#f5f7fa" />
  
  <g transform="translate(25, 20)">
    <!-- Clipboard -->
    <rect x="5" y="0" width="40" height="55" rx="3" ry="3" fill="white" stroke="url(#grad)" stroke-width="2" />
    <rect x="10" y="5" width="30" height="5" rx="1" ry="1" fill="#f5f7fa" stroke="url(#grad)" stroke-width="1" />
    <rect x="20" y="0" width="10" height="7" rx="2" ry="2" fill="url(#grad)" />
    
    <!-- Order List Lines -->
    <line x1="12" y1="20" x2="38" y2="20" stroke="#ddd" stroke-width="2" />
    <line x1="12" y1="30" x2="38" y2="30" stroke="#ddd" stroke-width="2" />
    <line x1="12" y1="40" x2="38" y2="40" stroke="#ddd" stroke-width="2" />
    
    <!-- Checkmarks -->
    <g transform="translate(12, 16)">
      <circle cx="0" cy="0" r="3" fill="url(#grad)" />
      <polyline points="-1.5,0 -0.5,1 1.5,-1" stroke="white" stroke-width="1" fill="none" />
    </g>
    
    <g transform="translate(12, 26)">
      <circle cx="0" cy="0" r="3" fill="url(#grad)" />
      <polyline points="-1.5,0 -0.5,1 1.5,-1" stroke="white" stroke-width="1" fill="none" />
    </g>
    
    <g transform="translate(12, 36)">
      <circle cx="0" cy="0" r="3" fill="url(#grad)" />
      <polyline points="-1.5,0 -0.5,1 1.5,-1" stroke="white" stroke-width="1" fill="none" />
    </g>
    
    <!-- WhatsApp Icon -->
    <g transform="translate(40, 50)">
      <circle cx="0" cy="0" r="10" fill="#25D366" />
      <path d="M0,0 m-6,-2 a6,6 0 1,1 12,0 a6,6 0 1,1 -12,0" fill="white" />
      <path d="M-3,-2 L0,1 L5,-4" stroke="white" stroke-width="1.5" fill="none" />
    </g>
  </g>
  
  <circle cx="50" cy="50" r="45" fill="none" stroke="url(#grad)" stroke-width="2" />
</svg> 